# xmcd
#
# Track frame offsets: 
#        150
#        20615
#        41675
#        66185
#        108638
#        122228
#        145263
#        168698
#        193638
#        223453
#        255498
#        290115
#        315993
#
# Disc length: 4764 seconds
#
# Revision: 0
# Processed by: cddbd v1.5.2PL0 Copyright (c) Steve Scherf et al.
# Submitted via: ExactAudioCopy v1.3
#
DISCID=d2129a0d
DTITLE=Buddy Guy - Buddy Guy And Friends [disk 1]
DYEAR=1996
DGENRE=Chicago Blues
TTITLE0=She Suits Me To A T
TTITLE1=Girl You're Nica And Clean
TTITLE2=Stone Crazy
TTITLE3=Tell Me What's Inside Of You
TTITLE4=Comin' On
TTITLE5=Love Is Like Quicksand
TTITLE6=Hubert Sumlin - All I Can Do
TTITLE7=Lurrie Bell - Smokin' Dynamite
TTITLE8=The Dollar Done Fell
TTITLE9=Blues At My Baby;s Home
TTITLE10=Jimmy Dawkins - Highwayman Blue
TTITLE11=Guitar Shorty - My Way Or The H
TTITLE12=I've Got A Right To Love My Wom
EXTD=
EXTT0=
EXTT1=
EXTT2=
EXTT3=
EXTT4=
EXTT5=
EXTT6=
EXTT7=
EXTT8=
EXTT9=
EXTT10=
EXTT11=
EXTT12=
PLAYORDER=
